<svg preserveAspectRatio="none" overflow="visible" style="display: block;" width="15" height="15" viewBox="0 0 15 15" fill="none" xmlns="http://www.w3.org/2000/svg">
<g id="si:clock-fill">
<path id="Vector" fill-rule="evenodd" clip-rule="evenodd" d="M13.75 7.5C13.75 10.9519 10.9519 13.75 7.5 13.75C4.04813 13.75 1.25 10.9519 1.25 7.5C1.25 4.04813 4.04813 1.25 7.5 1.25C10.9519 1.25 13.75 4.04813 13.75 7.5ZM8.125 3.75C8.125 3.58424 8.05915 3.42527 7.94194 3.30806C7.82473 3.19085 7.66576 3.125 7.5 3.125C7.33424 3.125 7.17527 3.19085 7.05806 3.30806C6.94085 3.42527 6.875 3.58424 6.875 3.75V6.875H5C4.83424 6.875 4.67527 6.94085 4.55806 7.05806C4.44085 7.17527 4.375 7.33424 4.375 7.5C4.375 7.66576 4.44085 7.82473 4.55806 7.94194C4.67527 8.05915 4.83424 8.125 5 8.125H7.375C7.57391 8.125 7.76468 8.04598 7.90533 7.90533C8.04598 7.76468 8.125 7.57391 8.125 7.375V3.75Z" fill="#B9823E"/>
</g>
</svg>
